<?xml version="1.0" encoding="UTF-8"?>
<svg id="Layer_1" data-name="Layer 1" xmlns="http://www.w3.org/2000/svg" viewBox="0 0 92.38 92.38">
  <defs>
    <style>
      .cls-1 {
        fill: #010101;
      }
    </style>
  </defs>
  <path class="cls-1" d="M9.83,27.73c.2-.69.93-1.09,1.63-.88,1.92.57,4.06,1.05,6.38,1.44.71.12,1.19.8,1.07,1.51-.11.64-.66,1.09-1.29,1.09-.07,0-.15,0-.22-.02-2.42-.41-4.67-.92-6.68-1.51-.69-.2-1.09-.93-.88-1.63ZM10.72,49.17c2.02.6,4.27,1.11,6.69,1.51.07.01.15.02.22.02.63,0,1.18-.45,1.29-1.09.12-.71-.36-1.39-1.07-1.51-2.31-.39-4.46-.88-6.38-1.44-.69-.21-1.42.19-1.63.88-.2.69.19,1.42.88,1.63ZM17.84,67.92c-2.31-.39-4.46-.88-6.38-1.44-.69-.21-1.42.19-1.63.88-.2.69.19,1.42.88,1.63,2.02.6,4.27,1.11,6.69,1.51.07.01.15.02.22.02.63,0,1.18-.45,1.29-1.09.12-.71-.36-1.39-1.07-1.51ZM92.38,65.69c0,14.72-11.97,26.69-26.69,26.69-9.11,0-17.16-4.59-21.98-11.57-3.74.49-7.69.74-11.77.74-15.48,0-31.94-3.88-31.94-11.06V11.06C0,3.88,16.46,0,31.94,0s31.94,3.88,31.94,11.06v28.01c.6-.04,1.2-.06,1.81-.06,14.72,0,26.69,11.97,26.69,26.69ZM2.62,11.06c0,1.9,3.09,4.06,8.06,5.65,5.66,1.8,13.21,2.79,21.26,2.79s15.6-.99,21.26-2.79c4.97-1.58,8.06-3.75,8.06-5.65s-3.09-4.06-8.06-5.65c-5.66-1.8-13.21-2.79-21.26-2.79s-15.6.99-21.26,2.79c-4.97,1.58-8.06,3.75-8.06,5.65ZM2.62,30.87c0,1.9,3.09,4.06,8.06,5.65,5.66,1.8,13.21,2.79,21.26,2.79s15.6-.99,21.26-2.79c4.97-1.58,8.06-3.75,8.06-5.65v-15.21c-5.25,4.22-17.56,6.46-29.32,6.46S7.87,19.88,2.62,15.66c0,0,0,15.21,0,15.21ZM2.62,50.68c0,1.9,3.09,4.06,8.06,5.65,5.66,1.8,13.21,2.79,21.26,2.79,2.71,0,5.38-.12,7.97-.34,2.68-9.98,11.02-17.67,21.35-19.41v-3.9c-5.25,4.22-17.56,6.46-29.32,6.46s-24.07-2.24-29.32-6.46c0,0,0,15.21,0,15.21ZM42.2,78.36c-2.04-3.77-3.2-8.09-3.2-12.67,0-1.44.12-2.86.34-4.24-2.41.19-4.89.28-7.4.28-11.76,0-24.07-2.24-29.32-6.46v15.21c0,1.9,3.09,4.06,8.06,5.65,5.66,1.8,13.21,2.79,21.26,2.79,3.54,0,6.99-.19,10.27-.57ZM89.77,65.69c0-13.27-10.8-24.07-24.07-24.07s-24.07,10.8-24.07,24.07,10.8,24.07,24.07,24.07,24.07-10.8,24.07-24.07ZM81.32,66.13v11.43c0,.72-.59,1.31-1.31,1.31h-11.43c-.72,0-1.31-.59-1.31-1.31v-11.43c0-.72.59-1.31,1.31-1.31h11.43c.72,0,1.31.59,1.31,1.31ZM78.7,67.44h-8.81v8.81h8.81v-8.81h0ZM63.39,71.84c0,4.33-3.52,7.86-7.85,7.86s-7.85-3.52-7.85-7.86,3.52-7.85,7.85-7.85,7.85,3.52,7.85,7.85ZM60.77,71.84c0-2.89-2.35-5.24-5.24-5.24s-5.24,2.35-5.24,5.24,2.35,5.24,5.24,5.24,5.24-2.35,5.24-5.24ZM73.25,61.34h-15.12c-.47,0-.9-.25-1.13-.65-.23-.4-.23-.9,0-1.31l7.56-13.09c.23-.4.67-.65,1.13-.65s.9.25,1.13.65l7.56,13.09c.23.4.23.9,0,1.31-.23.41-.67.66-1.13.66ZM70.98,58.72l-5.29-9.16-5.29,9.16h10.58Z"/>
</svg>