<svg width="5e3" height="5e3" version="1.1" viewBox="0 0 5e3 5e3" xml:space="preserve" xmlns="http://www.w3.org/2000/svg"><g transform="translate(2386.9 -3798.8)"><circle cx="113.09" cy="6298.8" r="2500" fill="#001e2b"/><g><circle cx="2523.1" cy="-317.94" r="0"/><circle cx="320.26" cy="862.35" r="0"/><circle cx="2523.1" cy="862.35" r="0"/><circle cx="1386" cy="2456.3" r="0"/><circle cx="2458.9" cy="2162.2" r="0"/><circle cx="2475.4" cy="-339.3" r="0"/></g><g transform="matrix(3.8884 0 0 3.8884 -2038.8 5758.3)" fill="#00ed64" stroke-width=".25717"><path d="m82.323 28.644c-10.786-12.798-20.074-25.795-21.972-28.494-0.1998-0.19996-0.4995-0.19996-0.6992 0-1.8976 2.6995-11.186 15.697-21.972 28.494-92.582 118.08 14.582 197.76 14.582 197.76l0.8988 0.6c0.7989 12.297 2.7964 29.994 2.7964 29.994h7.9898s1.9975-17.597 2.7965-29.994l0.8988-0.7c0.0998 0.1 107.26-79.585 14.681-197.66zm-22.372 196.06s-4.7938-4.099-6.0922-6.199v-0.199l5.7926-128.58c0-0.3999 0.5993-0.3999 0.5993 0l5.7925 128.58v0.199c-1.2983 2.1-6.0922 6.199-6.0922 6.199z"/><path d="m260.5 197.59-44.656-108.29-0.1-0.2991h-34.744v7.279h5.607c1.702 0 3.304 0.6981 4.506 1.8946 1.201 1.1966 1.802 2.7924 1.802 4.4874l-1.001 108.99c0 3.39-2.803 6.182-6.208 6.282l-5.707 0.1v7.179h33.843v-7.179l-3.505-0.1c-3.404-0.1-6.208-2.892-6.208-6.282v-102.7l48.662 116.26c0.7 1.695 2.302 2.792 4.105 2.792 1.802 0 3.404-1.097 4.105-2.792l47.56-113.67 0.701 100.11c0 3.49-2.804 6.282-6.308 6.382h-3.605v7.179h39.65v-7.179h-5.407c-3.404 0-6.208-2.892-6.308-6.282l-0.3-108.99c0-3.4896 2.803-6.2815 6.208-6.3812l5.807-0.0998v-7.279h-33.843z"/><path d="m571.87 216.14c-1.105-1.096-1.707-2.59-1.707-4.382v-53.385c0-10.159-3.011-18.127-9.035-23.804-5.922-5.677-14.154-8.565-24.393-8.565-14.356 0-25.699 5.777-33.63 17.131-0.1 0.199-0.401 0.299-0.702 0.299-0.302 0-0.502-0.2-0.502-0.498l-3.715-14.243h-6.224l-15.961 9.064v4.979h4.116c1.907 0 3.513 0.498 4.618 1.494 1.104 0.996 1.706 2.49 1.706 4.582v62.846c0 1.793-0.602 3.287-1.706 4.382-1.105 1.096-2.61 1.693-4.417 1.693h-4.016v7.271h36.741v-7.271h-4.015c-1.807 0-3.313-0.597-4.417-1.693-1.104-1.095-1.707-2.589-1.707-4.382v-41.632c0-5.279 1.205-10.557 3.414-15.736 2.308-5.08 5.721-9.362 10.239-12.649 4.517-3.287 9.938-4.88 16.162-4.88 7.027 0 12.348 2.191 15.66 6.573 3.313 4.382 5.02 10.059 5.02 16.832v51.392c0 1.793-0.603 3.287-1.707 4.383-1.104 1.095-2.61 1.693-4.417 1.693h-4.015v7.27h36.741v-7.27h-4.015c-1.506 0.199-2.912-0.399-4.116-1.494z"/><path d="m907.55 97.212c-10.156-5.4079-21.507-8.212-33.754-8.212h-47.792v7.3107h4.68c1.792 0 3.385 0.701 4.978 2.3034 1.494 1.5019 2.29 3.2049 2.29 5.0069v107.76c0 1.802-0.796 3.505-2.29 5.007-1.493 1.502-3.186 2.303-4.978 2.303h-4.68v7.311h47.792c12.247 0 23.598-2.804 33.754-8.212 10.155-5.408 18.42-13.42 24.394-23.634 5.974-10.215 9.06-22.533 9.06-36.554 0-14.02-3.086-26.238-9.06-36.553-6.074-10.415-14.239-18.427-24.394-23.835zm14.238 60.188c0 12.819-2.29 23.634-6.771 32.347-4.48 8.713-10.455 15.222-17.823 19.428-7.367 4.207-15.532 6.31-24.294 6.31h-9.658c-1.792 0-3.385-0.701-4.978-2.304-1.494-1.502-2.29-3.204-2.29-5.007v-101.65c0-1.803 0.697-3.405 2.29-5.008 1.493-1.502 3.186-2.3031 4.978-2.3031h9.658c8.762 0 16.927 2.1031 24.294 6.3091 7.368 4.206 13.343 10.716 17.823 19.429 4.481 8.712 6.771 19.628 6.771 32.447z"/><path d="m1054 164.71c-4.42-5.108-12.95-9.414-22.98-11.718 13.85-6.91 20.97-16.624 20.97-29.142 0-6.81-1.8-12.919-5.42-18.127-3.61-5.207-8.73-9.4134-15.25-12.318-6.53-2.9042-14.16-4.4064-22.79-4.4064h-54.098v7.3107h4.316c1.806 0 3.412 0.701 5.018 2.3033 1.506 1.502 2.309 3.205 2.309 5.007v107.76c0 1.802-0.803 3.505-2.309 5.007-1.505 1.502-3.212 2.303-5.018 2.303h-4.718v7.311h58.72c8.93 0 17.26-1.502 24.79-4.507 7.53-3.004 13.55-7.41 17.87-13.219 4.41-5.808 6.62-12.919 6.62-21.131-0.1-8.813-2.71-16.324-8.03-22.432zm-67.349 48.57c-1.506-1.502-2.309-3.204-2.309-5.007v-48.37h27.908c9.83 0 17.36 2.503 22.58 7.51 5.22 5.008 7.83 11.517 7.83 19.529 0 4.807-1.21 9.514-3.41 13.82-2.31 4.407-5.73 7.912-10.34 10.616-4.52 2.704-10.14 4.106-16.66 4.106h-20.581c-1.806 0.1-3.412-0.701-5.018-2.204zm-2.208-63.693v-42.962c0-1.803 0.702-3.405 2.308-5.008 1.506-1.502 3.212-2.303 5.019-2.303h13.25c9.53 0 16.56 2.404 20.98 7.01 4.41 4.707 6.62 10.716 6.62 18.127 0 7.611-2.11 13.72-6.22 18.327-4.12 4.506-10.34 6.809-18.57 6.809z"/><path d="m432 132.39c-7.67-4.191-16.236-6.387-25.499-6.387s-17.929 2.096-25.499 6.387c-7.67 4.192-13.746 10.28-18.228 17.965s-6.773 16.668-6.773 26.648 2.291 18.963 6.773 26.648 10.558 13.773 18.228 17.965c7.67 4.191 16.236 6.387 25.499 6.387s17.929-2.096 25.499-6.387c7.67-4.192 13.746-10.28 18.228-17.965s6.773-16.668 6.773-26.648-2.291-18.963-6.773-26.648-10.558-13.673-18.228-17.965zm7.371 44.613c0 12.276-2.988 22.256-8.965 29.442-5.876 7.186-13.944 10.879-23.905 10.879-9.96 0-18.029-3.693-23.905-10.879-5.977-7.186-8.965-17.166-8.965-29.442s2.988-22.256 8.965-29.442c5.876-7.186 13.945-10.879 23.905-10.879 9.961 0 18.029 3.693 23.905 10.879 5.977 7.285 8.965 17.166 8.965 29.442z"/><path d="m785 132.39c-7.67-4.191-16.236-6.387-25.499-6.387s-17.929 2.096-25.499 6.387c-7.67 4.192-13.746 10.28-18.228 17.965s-6.773 16.668-6.773 26.648 2.291 18.963 6.773 26.648 10.558 13.773 18.228 17.965c7.67 4.191 16.236 6.387 25.499 6.387s17.929-2.096 25.499-6.387c7.67-4.192 13.746-10.28 18.228-17.965s6.773-16.668 6.773-26.648-2.291-18.963-6.773-26.648-10.658-13.673-18.228-17.965zm7.371 44.613c0 12.276-2.989 22.256-8.965 29.442-5.877 7.186-13.945 10.879-23.905 10.879-9.961 0-18.029-3.693-23.905-10.879-5.977-7.186-8.965-17.166-8.965-29.442 0-12.376 2.988-22.256 8.965-29.442 5.876-7.186 13.944-10.879 23.905-10.879 9.96 0 18.028 3.693 23.905 10.879 5.877 7.285 8.965 17.166 8.965 29.442z"/><path d="m642.64 126c-8.026 0-15.348 1.704-21.969 5.113s-11.837 8.022-15.549 13.937c-3.711 5.815-5.617 12.333-5.617 19.251 0 6.216 1.404 11.931 4.313 17.045 2.809 4.913 6.621 9.023 11.436 12.432l-14.345 19.452c-1.806 2.406-2.006 5.614-0.702 8.221 1.404 2.707 4.012 4.312 7.022 4.312h4.113c-4.013 2.707-7.223 5.915-9.43 9.725-2.608 4.312-3.912 8.823-3.912 13.435 0 8.623 3.812 15.742 11.335 21.056 7.424 5.314 17.856 8.021 30.997 8.021 9.129 0 17.856-1.504 25.781-4.412 8.025-2.907 14.545-7.219 19.36-12.833 4.916-5.615 7.424-12.433 7.424-20.254 0-8.221-3.01-14.037-10.032-19.651-6.018-4.713-15.448-7.219-27.185-7.219h-40.125c-0.1 0-0.201-0.101-0.201-0.101s-0.1-0.2 0-0.3l10.433-14.037c2.809 1.303 5.417 2.105 7.724 2.606 2.407 0.502 5.116 0.702 8.125 0.702 8.427 0 16.051-1.704 22.671-5.113 6.621-3.409 11.938-8.021 15.75-13.937 3.811-5.815 5.717-12.332 5.717-19.25 0-7.42-3.611-20.956-13.442-27.874 0-0.1 0.101-0.1 0.101-0.1l21.567 2.406v-9.926h-34.508c-5.417-1.805-11.034-2.707-16.852-2.707zm12.037 62.665c-3.812 2.005-7.925 3.108-12.037 3.108-6.721 0-12.64-2.406-17.656-7.119-5.015-4.712-7.523-11.63-7.523-20.453 0-8.824 2.508-15.742 7.523-20.454 5.016-4.713 10.935-7.119 17.656-7.119 4.213 0 8.225 1.003 12.037 3.108 3.812 2.005 6.922 5.114 9.43 9.224 2.407 4.111 3.711 9.225 3.711 15.241 0 6.116-1.204 11.229-3.711 15.24-2.408 4.11-5.618 7.219-9.43 9.224zm-27.185 36.997h27.185c7.524 0 12.339 1.504 15.549 4.713 3.21 3.208 4.815 7.519 4.815 12.533 0 7.319-2.909 13.335-8.727 17.847-5.819 4.512-13.643 6.818-23.273 6.818-8.427 0-15.449-1.905-20.565-5.515-5.116-3.609-7.724-9.124-7.724-16.142 0-4.412 1.204-8.523 3.612-12.132 2.407-3.61 5.316-6.217 9.128-8.122z"/><path d="m1082.4 224.33c-1.98-1.083-3.47-2.658-4.66-4.528-1.09-1.968-1.69-4.035-1.69-6.299s0.6-4.429 1.69-6.299c1.09-1.969 2.68-3.445 4.66-4.528 1.99-1.082 4.17-1.673 6.65-1.673s4.66 0.591 6.65 1.673c1.98 1.083 3.47 2.658 4.66 4.528 1.09 1.968 1.69 4.035 1.69 6.299s-0.6 4.429-1.69 6.299c-1.09 1.969-2.68 3.445-4.66 4.528-1.99 1.082-4.17 1.673-6.65 1.673-2.38 0-4.66-0.591-6.65-1.673zm12.21-1.477c1.68-0.885 2.88-2.263 3.87-3.838 0.89-1.673 1.39-3.544 1.39-5.61 0-2.067-0.5-3.937-1.39-5.611-0.9-1.673-2.19-2.952-3.87-3.838-1.69-0.886-3.48-1.378-5.56-1.378s-3.87 0.492-5.56 1.378c-1.68 0.886-2.88 2.264-3.87 3.838-0.89 1.674-1.39 3.544-1.39 5.611 0 2.066 0.5 3.937 1.39 5.61 0.9 1.673 2.19 2.953 3.87 3.838 1.69 0.886 3.48 1.378 5.56 1.378s3.97-0.492 5.56-1.378zm-10.92-3.444v-0.886l0.2-0.099h0.6c0.19 0 0.39-0.098 0.49-0.197 0.2-0.196 0.2-0.295 0.2-0.492v-9.153c0-0.197-0.1-0.394-0.2-0.492-0.2-0.197-0.3-0.197-0.49-0.197h-0.6l-0.2-0.099v-0.885l0.2-0.099h5.16c1.49 0 2.58 0.295 3.47 0.984 0.9 0.689 1.29 1.575 1.29 2.756 0 0.886-0.29 1.772-0.99 2.362-0.69 0.689-1.49 1.083-2.48 1.182l1.19 0.393 2.28 3.642c0.2 0.295 0.4 0.394 0.7 0.394h0.59l0.1 0.098v0.886l-0.1 0.098h-3.07l-0.2-0.098-3.18-5.315h-0.79v3.543c0 0.197 0.1 0.394 0.2 0.492 0.2 0.197 0.3 0.197 0.49 0.197h0.6l0.2 0.099v0.886l-0.2 0.098h-5.26zm5.06-6.398c0.8 0 1.49-0.197 1.89-0.689 0.39-0.394 0.69-1.083 0.69-1.87 0-0.788-0.2-1.378-0.59-1.87-0.4-0.492-1-0.689-1.69-0.689h-0.4c-0.2 0-0.39 0.098-0.49 0.197-0.2 0.196-0.2 0.295-0.2 0.492v4.429z"/></g></g><style type="text/css">
	.st0{fill:#2DBCAF;}
	.st1{fill:#5DC9E1;}
	.st2{fill:#FDDD00;}
	.st3{fill:#CE3262;}
	.st4{fill:#00ACD7;}
	.st5{fill:#FFFFFF;}
</style></svg>
